<svg xmlns="http://www.w3.org/2000/svg" width="1200px" height="1073px" viewBox="0 0 12000 10730" preserveAspectRatio="xMidYMid meet">
<g id="layer101" fill="#44546a" stroke="none">
<path d="M2084 10695 c-55 -17 -100 -41 -158 -83 -49 -36 -147 -155 -531 -646 -115 -148 -255 -326 -310 -397 -55 -70 -134 -171 -177 -226 -42 -54 -158 -204 -259 -333 -100 -129 -252 -322 -337 -428 -85 -107 -178 -227 -208 -269 -113 -157 -130 -329 -49 -500 45 -97 92 -144 285 -291 91 -69 230 -175 310 -236 80 -61 240 -182 357 -271 116 -88 525 -399 910 -691 384 -292 722 -547 751 -567 77 -53 168 -79 272 -79 72 0 106 6 220 42 74 24 245 75 380 115 237 70 374 111 1035 310 171 51 409 123 530 159 478 143 575 174 617 199 54 32 159 140 186 192 49 97 66 237 41 344 -24 107 -103 218 -207 295 -66 48 -165 76 -269 76 -103 0 -192 -21 -558 -135 -148 -46 -306 -94 -350 -106 -44 -11 -174 -50 -290 -86 -115 -36 -264 -81 -330 -100 -135 -38 -236 -68 -510 -153 -104 -32 -239 -72 -299 -88 l-108 -30 -140 107 c-76 58 -158 119 -181 135 -23 16 -84 63 -136 105 -52 42 -123 96 -158 121 -35 25 -160 119 -278 210 -119 91 -237 181 -264 200 -27 19 -77 58 -111 85 -35 28 -102 79 -150 115 -193 143 -410 311 -410 316 0 3 141 187 313 407 349 448 423 543 547 702 48 61 144 184 215 275 70 91 134 171 140 178 12 14 259 -30 985 -173 179 -35 377 -73 440 -85 63 -12 333 -63 600 -115 1230 -239 1519 -295 1580 -305 36 -6 245 -47 465 -90 220 -44 499 -97 620 -120 366 -68 1027 -200 1039 -207 6 -4 112 -88 235 -188 123 -99 317 -254 431 -345 114 -91 700 -559 1301 -1040 602 -482 1108 -886 1125 -897 60 -42 135 -65 230 -71 159 -8 268 32 375 138 101 99 149 212 149 346 0 179 -89 320 -301 477 -35 26 -101 78 -145 115 -114 93 -229 186 -518 415 -137 109 -268 213 -290 233 -23 19 -76 63 -119 97 -209 165 -273 216 -513 407 -142 113 -298 239 -347 280 -50 41 -109 88 -131 104 -23 16 -65 49 -94 75 -30 25 -91 75 -137 111 -46 36 -244 193 -440 350 -261 210 -370 291 -411 307 -48 19 -818 180 -944 198 -25 3 -283 53 -575 110 -291 57 -780 151 -1085 210 -593 114 -1297 250 -2185 421 -302 58 -755 146 -1005 195 -481 94 -571 104 -666 74z"/>
</g>
<g id="layer102" fill="#8497b0" stroke="none">
<path d="M7552 7789 c-66 -13 -162 -68 -225 -131 -68 -68 -121 -171 -137 -268 -6 -43 -10 -634 -10 -1722 l0 -1656 -342 -329 c-189 -180 -505 -483 -703 -674 -198 -190 -721 -691 -1163 -1112 l-802 -767 -68 50 c-37 28 -98 72 -137 98 -38 27 -118 84 -177 128 -102 76 -227 166 -416 301 -122 87 -193 114 -312 121 -83 4 -104 1 -165 -20 -141 -49 -235 -133 -296 -263 -64 -137 -60 -281 12 -425 47 -94 100 -145 290 -281 74 -53 184 -132 244 -176 61 -44 218 -158 350 -254 518 -374 507 -367 612 -394 114 -30 251 -9 358 55 36 22 227 197 523 480 l465 444 701 -17 c612 -14 710 -15 774 -2 211 41 385 222 422 437 9 48 8 205 -4 634 -9 313 -16 608 -16 656 l0 87 779 746 c726 695 781 750 815 815 93 177 80 358 -37 523 -87 121 -202 185 -351 194 -130 8 -208 -8 -296 -62 l-70 -44 0 1192 c0 1016 -2 1201 -15 1255 -44 187 -203 349 -375 382 -62 12 -167 11 -228 -1z"/>
</g>


</svg>